<?xml version="1.0" encoding="UTF-8"?>
<svg xmlns="http://www.w3.org/2000/svg" viewBox="0 0 1080 200" width="1080" height="200">
<path d="M202.5 59.69C198.32 58.88 193.53 59.45 189.25 59.45C180.08 59.45 170.92 59.45 161.75 59.45C159.02 59.45 149.56 58.71 148.08 60.16C146.99 66.35 147.89 73.45 147.89 79.75C147.89 82.64 147.33 86.07 148.5 88.75C152.56 87.74 157.56 88.47 161.75 88.47C170.42 88.47 179.08 88.47 187.75 88.47C189.29 88.47 198.14 88.11 198.81 89.01C199.26 89.62 199.02 90.8 198.99 91.5C197.97 92.81 197.96 96.19 198.99 97.5C198.97 98.18 199.19 99.22 198.48 99.66C197.07 100.54 189.31 99.86 187.25 99.86C177.75 99.86 168.25 99.86 158.75 99.86C157.24 99.86 149.32 99.33 148.5 99.88C147.1 100.83 147.89 105.7 147.89 107.25C147.89 114.81 146.77 123.41 148.08 130.84C149.59 132.31 159.91 131.55 162.75 131.55C171.92 131.55 181.08 131.55 190.25 131.55C194.43 131.55 199.47 130.82 203.5 131.76C204.44 132.78 204.83 141.46 203.54 142.16C202.02 142.99 189.83 142.34 187.25 142.34C175.08 142.34 162.92 142.34 150.75 142.34C146.73 142.34 138.53 143.38 135.14 141.75C135.14 110.92 135.14 80.08 135.14 49.25C138.74 47.51 147.93 48.66 152.25 48.66C164.08 48.66 175.92 48.66 187.75 48.66C191.29 48.66 199.56 47.63 202.55 48.83C204.04 49.43 203.52 58.55 202.5 59.69ZM221.21 48.68C222.47 48.51 230.54 48.45 230.92 49.26C232.1 51.73 231.16 65.63 231.16 69.25C231.16 85.75 231.16 102.25 231.16 118.75C231.16 124.75 231.16 130.75 231.16 136.75C231.16 138.37 231.93 142.02 229.77 142.32C228.51 142.5 220.43 142.54 220.03 141.75C219.25 140.19 219.76 137.46 219.76 135.75C219.76 131.08 219.76 126.42 219.76 121.75C219.76 105.25 219.76 88.75 219.76 72.25C219.76 66.25 219.76 60.25 219.76 54.25C219.76 52.59 218.99 48.98 221.21 48.68ZM452.96 138C452.96 125.33 452.96 112.67 452.96 100C452.96 99.33 452.96 98.67 452.96 98C452.96 96.33 452.96 94.67 452.96 93C452.96 92.33 452.96 91.67 452.96 91C453.05 77.17 453.14 63.33 453.23 49.5C454.51 47.87 458.65 48.66 460.75 48.66C468.08 48.66 475.42 48.66 482.75 48.66C499.49 48.66 517.47 48.5 520.48 69.24C520.92 72.31 520.68 75.79 519.78 78.78C518.64 82.55 516.35 86.04 513.27 88.58C511.94 89.67 509.87 90.41 509.01 91.75C510.45 93.02 511.92 93.32 513.59 94.21C517.51 96.3 521.12 99.7 522.91 103.81C524.49 107.44 525.07 111.3 525.02 115.25C524.98 118.43 524.37 121.51 523.25 124.44C515.58 144.56 494.01 142.34 476.25 142.34C470.58 142.34 464.92 142.34 459.25 142.34C458.02 142.34 454.14 142.99 453.29 141.98C452.53 141.08 452.91 139.09 452.96 138ZM622.71 49.28C622.16 51.77 621.49 58.07 623.01 60C622.6 62.55 613.55 62.3 611.93 61C613.47 59 612.88 52.02 612.22 49.5C613.21 48.07 621.38 47.93 622.71 49.28ZM651.76 49.5C651.76 80.17 651.76 110.83 651.76 141.5C650.71 142.85 648.47 142.34 646.75 142.34C645.27 142.34 642.44 142.88 641.2 142C640.16 141.27 640.63 138.84 640.63 137.75C640.63 133.75 640.63 129.75 640.63 125.75C640.63 108.42 640.63 91.08 640.63 73.75C640.63 68.32 639.6 54.16 640.71 49.73C641.14 47.99 650.85 48.33 651.76 49.5ZM716.04 142.23C715.79 139.82 715.55 137.41 715.3 135C714.95 134.69 714.6 134.37 714.25 134.06C706.79 148.01 686.2 146.52 676.04 136.7C668.03 128.95 665.27 116.52 665.37 105.75C665.51 92.01 672.22 76.06 687 73.09C690.47 72.39 693.9 71.62 697.49 72.24C701.4 72.92 705.6 74.45 708.6 77.13C710.29 78.64 712.29 82.18 714.25 82.78C714.32 79.35 714.39 75.93 714.46 72.5C715.66 71.25 715.22 69.07 715.22 67.25C715.22 64.11 716.09 52.22 714.47 50.5C715.57 47.49 725.33 48.46 725.79 49.24C726.61 50.62 726.01 53.71 726.01 55.25C726.01 60.25 726.01 65.25 726.01 70.25C726.01 87.58 726.01 104.92 726.01 122.25C726.01 126.92 726.01 131.58 726.01 136.25C726.01 137.67 726.55 140.49 725.79 141.76C725.22 142.72 717.45 142.41 716.04 142.23ZM466 87.88C470.1 88.82 475.02 88.14 479.25 88.14C491.13 88.14 507.62 90.01 507.95 73.75C508.34 54.68 480.76 59.91 468.5 59.49C466.22 55.7 464.51 60.58 464.5 62.75C464.46 70.87 463.31 80.14 464.75 88.1C465.81 88.78 465.25 88.68 466 87.88ZM279 72.06C293.53 72.74 303.54 83.65 305.89 97.5C306.51 101.13 307.08 104.54 307.19 108.25C307.22 108.95 307.49 111.5 306.63 111.88C304.64 112.76 298.19 112 295.75 112C286.92 112 278.08 112 269.25 112C267.2 112 257.82 111.25 257.59 113.26C255.75 129.64 273.24 139.4 286.96 131.97C289.72 130.48 292.64 127.33 294.01 124.48C294.46 123.53 294.25 121.7 295.35 121.09C296.76 120.32 304.36 120.81 306 121.25C305.68 125.91 302.98 130.54 300.04 134.05C288.36 147.98 263.35 148.02 252.07 133.19C241.93 119.86 242.8 96.66 252.85 83.53C256.88 78.25 266.01 71.72 273 72.69C275 72.48 277 72.27 279 72.06ZM400 144.02C398.81 143.13 396.68 143.15 395.5 144.04C378.08 144.69 369.1 123.29 380.23 110.49C387.14 102.54 399.55 102.58 409.25 101.55C411.84 101.28 415.69 101.42 417.98 100.04C421.11 98.13 421.4 93.52 420.75 90.31C418.69 80.19 401.57 79.35 394.63 84.39C390.81 87.17 390.5 93.35 388.5 94.7C385.47 94.55 382.45 94.4 379.42 94.25C379.45 94.25 379.47 94.24 379.5 94.24C376.27 88.78 384.1 78.91 388.65 76.16C398.83 70.02 418.83 70.37 427.63 79.13C432.35 83.82 432.2 90.03 432.2 96.25C432.2 103.75 432.2 111.25 432.2 118.75C432.2 121.97 431.21 131.01 433.1 133.45C434.49 135.24 437.71 134.24 439.45 134.25C440.15 135.55 439.88 137.29 439.88 138.75C439.88 139.76 440.09 141.06 439.66 141.99C438.58 144.33 429.82 143.55 427.76 142.92C423.29 141.57 422.77 137.86 421.25 134.18C419.12 134.7 417.08 137.53 415.15 138.86C410.75 141.87 405.37 143.97 400 144.02ZM894.98 96.97C891.44 96.97 887.9 96.97 884.37 96.97C883.59 93.75 882.65 90.38 880.56 87.73C874.49 80.04 861.33 80.92 855.23 88.04C847.29 97.3 847.8 113.86 852.01 124.52C856.27 135.29 871.06 137.18 878.88 129.61C882.17 126.44 883.4 119.58 884.4 118.59C885.25 117.74 893.53 118.02 894.75 118.35C895.18 121.32 894.33 124.14 893.26 126.94C888.25 140.09 875.21 146.37 861.49 143.78C847.29 141.1 838.83 129.15 837.17 115.27C835.41 100.51 840.35 81.87 854.88 75.21C867.99 69.19 884.82 71.57 891.95 85C893.88 88.63 895.26 92.81 894.98 96.97ZM931.84 72.18C945.15 71.68 957.09 77.78 962.69 90.17C971.38 109.42 964.39 141.27 939.82 143.88C927.43 145.2 914.72 140.86 908.32 129.6C896.72 109.19 904.08 73.24 931.84 72.18ZM1060.28 141.5C1061.21 137.77 1060.57 133.14 1060.57 129.25C1060.57 120.92 1060.57 112.58 1060.57 104.25C1060.57 101.68 1061.39 93.57 1059.34 92.5C1055.57 76.49 1035.18 81.26 1031.91 95C1029.62 104.64 1031.09 120.42 1031.09 130.75C1031.09 132.52 1031.58 141.86 1030.17 142.27C1029.04 142.6 1020.51 142.49 1020 141.8C1018.9 140.29 1019.67 130.16 1019.67 127.75C1019.67 117.58 1019.69 107.42 1019.67 97.25C1019.65 90.28 1017.82 83.26 1009.75 82.48C1007.17 82.23 1004.51 82.88 1002.14 83.81C988.23 89.3 990.96 108.37 990.96 120.25C990.96 123.42 990.96 126.58 990.96 129.75C990.96 133.44 991.72 138.25 990.64 141.72C988.24 141.23 982.38 140.6 980.5 142.03C978.56 141.28 979.32 131.74 979.32 129.25C979.32 115.75 979.32 102.25 979.32 88.75C979.32 86.3 978.51 76.43 979.55 74.82C980.01 74.1 980.36 74.38 981 74.28C983.86 74.44 986.73 74.59 989.59 74.75C989.56 74.75 989.53 74.76 989.5 74.76C989.92 77.49 990.33 80.22 990.75 82.95C996.26 78.39 1000.53 72.32 1008.5 72.36C1010.17 72.36 1011.83 72.36 1013.5 72.37C1020.43 73.16 1025.77 76.44 1029 82.75C1031.29 82.3 1036.26 75.93 1039.26 74.45C1050.34 68.94 1064.48 73.23 1069.61 84.55C1072.09 90 1071.29 96.91 1071.3 102.75C1071.32 111.42 1071.3 120.08 1071.3 128.75C1071.3 132.61 1072.09 137.42 1071.25 141.19C1070.83 143.05 1061.13 142.7 1060.28 141.5ZM763 72.38C764.86 72.76 769.58 73.35 771 72.36C779.85 74.76 786.53 76.6 790.25 86.06C790.91 87.72 792.36 91.47 791.4 93.07C791.11 93.56 781.86 93.73 781.27 93.17C779.61 91.61 780.04 87.76 776.99 85.34C770.54 80.24 754.03 79.81 751.26 89.44C749.49 95.59 755.01 99.14 760.25 100.13C769.73 101.93 788.45 105.58 792.76 114.92C793.87 117.31 794.07 120.16 794 122.75C793.5 140.82 774.91 145.25 760.23 143.91C751.07 143.07 741.85 138.28 739.07 129C738.63 127.53 736.6 121.63 738.35 120.5C739.14 119.99 747.44 120.1 748.26 120.71C748.92 121.2 750.18 127.96 753.23 130.59C759.55 136.06 779.49 136.46 782.08 126.34C783.95 119.06 778.06 116.41 772.21 114.78C764.03 112.51 747.01 110.56 742.32 102.74C733.98 88.79 747.63 71.11 763 72.38ZM322.82 74.52C328.74 92.6 334.66 110.67 340.59 128.75C341.99 128.44 342.1 126.52 342.55 125.27C343.84 121.73 345.04 118.26 346.18 114.71C349.16 105.48 352.77 96.47 355.81 87.2C357.02 83.52 358.2 76.87 361 74.35C364.5 74.33 368 74.31 371.5 74.29C373.42 75.53 367.92 86.44 367.01 89C363.86 97.86 360.11 106.62 356.96 115.48C355.18 120.48 353.61 125.76 351.33 130.58C350.26 132.83 348.02 141.98 345.74 142.32C344.18 142.55 335.4 142.76 334.47 141.78C332.98 140.21 329.96 129.68 329.06 127C324.98 114.9 320.47 102.88 316.02 90.98C314.65 87.34 313.24 83.68 311.99 80C311.43 78.34 309.92 76.46 310.5 74.78C314.61 74.7 318.72 74.61 322.82 74.52ZM540 74.35C543 74.33 546 74.31 549 74.29C549.57 74.38 550.05 74.13 550.48 74.75C551.62 76.41 550.77 87.17 550.77 89.75C550.77 100.2 550.2 110.84 550.86 121.27C551.22 126.96 553.94 132.68 560 134.05C561.81 134.45 563.99 134.21 565.83 134.19C583.93 134 582.68 110.62 582.68 98.25C582.68 95.25 582.68 92.25 582.68 89.25C582.68 86.36 581.84 75.93 583.5 74.32C586.94 74.38 590.37 74.45 593.81 74.52C593.88 75.51 593.95 76.51 594.03 77.5C592.3 79.78 593.42 86.24 593.42 89.25C593.42 99.75 593.42 110.25 593.42 120.75C593.42 123.51 592.65 131.69 594.03 133.5C594.03 134.17 594.03 134.83 594.03 135.5C593.15 136.65 593.15 138.35 594.03 139.5C594.07 140.29 594.3 141.32 593.73 141.99C593.17 142.63 585.27 142.41 584.09 142.21C584.07 142 584.06 141.79 584.05 141.59C583.95 138.51 583.85 135.43 583.75 132.35C583.5 132.6 583.25 132.84 583 133.09C579.94 134.44 577.35 140.53 571.24 142.71C561.19 146.29 547.69 144.25 542 134.5C540.67 132.22 539.58 129.63 539.7 127C539.59 109.67 539.48 92.33 539.38 75C539.58 74.78 539.79 74.57 540 74.35ZM612.5 74.31C615.93 74.38 619.37 74.45 622.8 74.52C622.77 74.68 622.73 74.84 622.69 75C622.7 97.24 622.7 119.48 622.71 141.72C621.85 142.59 612.34 142.79 611.83 141.56C610.58 138.54 611.64 129.85 611.64 126.25C611.64 114.25 611.64 102.25 611.64 90.25C611.64 87.29 610.8 75.87 612.5 74.31ZM932 134.27C933.5 134.28 935 134.29 936.5 134.29C939.82 133.46 943.17 133.04 945.94 130.85C960.48 119.39 956.89 82.17 934.75 82.03C924.14 81.96 917.64 90.01 915.79 99.75C913.79 110.25 914.73 125.68 925.04 131.95C927.09 133.2 929.72 133.66 932 134.27ZM271.75 82.88C265.71 84.26 260.91 90.22 258.83 95.66C258.25 97.19 256.76 100.88 257.89 102.39C258.82 103.63 264.24 102.8 265.75 102.8C272.92 102.8 280.08 102.8 287.25 102.8C288.72 102.8 293.76 103.6 294.78 102.55C296.55 100.74 294.03 95.08 293.38 93.27C290.22 84.6 280.44 80.89 271.75 82.88ZM690.75 82.87C682.26 84.51 678.62 93.06 677.76 100.75C676.12 115.44 679.32 136.79 699.02 134.13C708.89 132.79 713.81 122.67 714.13 113.77C714.69 98.12 711.22 78.9 690.75 82.87ZM465.64 99.17C463.64 99.37 464.5 104.39 464.5 106.25C464.5 112.42 464.5 118.58 464.5 124.75C464.5 126.9 463.9 130.37 465.5 131.4C471.94 131.51 478.69 131.47 485.25 131.47C498.36 131.47 512.32 131.29 512.31 114.25C512.3 96.46 492.22 98.72 479.75 98.72C475.73 98.72 469.29 97.5 465.64 99.17ZM420.75 108.43C418.21 108.1 412.96 110.28 409.98 110.75C401.25 112.15 384.5 112.14 387.47 125.73C387.87 127.53 388.28 128.95 389.31 130.51C395.39 139.71 413.83 133.12 418.68 125.43C421.7 120.63 421.2 113.91 420.75 108.43ZM820.78 128.75C820.84 133.03 820.89 137.31 820.94 141.59C820.92 141.79 820.9 141.99 820.88 142.19C818.35 142.57 809.09 143.03 808.28 141C808.28 137.33 808.28 133.67 808.28 130C809.31 127.35 818.02 128.21 820.78 128.75Z" fill="#33332d" fill-rule="evenodd" stroke="#33332d" stroke-width="0.25" stroke-linejoin="round"/>
<path d="M15.87 96C19.68 99.92 22.43 104.74 26.96 108.28C38.55 117.38 56.25 118.92 69.51 112.75C74.56 110.4 79.1 106.69 82.83 102.57C84.52 100.7 85.71 97.39 88.04 96.44C90.97 100.27 92.4 107.29 92.13 112C92.13 113.67 92.13 115.33 92.12 117C92.46 123.47 89.65 130.56 86.22 135.95C72.47 157.62 40.97 161.46 22.88 142.87C13.87 133.6 10.03 120.95 11.77 108.25C12.27 104.62 13.21 98.71 15.87 96Z" fill="#01adf4" fill-rule="evenodd" stroke="#01adf4" stroke-width="0.25" stroke-linejoin="round"/>
<path d="M87.93 95.93C87.97 96.1 88.01 96.27 88.04 96.44C85.71 97.39 84.52 100.7 82.83 102.57C79.1 106.69 74.56 110.4 69.51 112.75C56.25 118.92 38.55 117.38 26.96 108.28C22.43 104.74 19.68 99.92 15.87 96C16.02 95.52 16.17 95.05 16.32 94.57C19.84 90.82 22.08 86.07 26.41 82.67C39.74 72.2 59.67 70.81 73.99 80.28C78.12 83.01 81.81 86.48 84.76 90.48C86.02 92.18 86.48 94.56 87.93 95.93Z" fill="#00c5e7" fill-rule="evenodd" stroke="#00c5e7" stroke-width="0.25" stroke-linejoin="round"/>
<path d="M86.66 55.1C84.64 56.38 83.46 58.8 81.8 60.57C78.37 64.25 74.19 67.69 69.59 69.79C54.44 76.71 35.41 74.27 23.56 62.21C21.34 59.95 18.54 57.37 17.34 54.43C27.51 34.39 56.77 29.63 74.35 41.88C78.82 44.99 84.95 49.86 86.66 55.1Z" fill="#01e2d8" fill-rule="evenodd" stroke="#01e2d8" stroke-width="0.25" stroke-linejoin="round"/>
<path d="M17.34 54.43C18.54 57.37 21.34 59.95 23.56 62.21C35.41 74.27 54.44 76.71 69.59 69.79C74.19 67.69 78.37 64.25 81.8 60.57C83.46 58.8 84.64 56.38 86.66 55.1C90.24 59.57 92.42 67.32 92.13 73C92.13 74.67 92.14 76.33 92.14 78C92.38 82.08 91.19 86.3 89.81 90.12C89.08 92.15 87.81 93.7 87.93 95.93C86.48 94.56 86.02 92.18 84.76 90.48C81.81 86.48 78.12 83.01 73.99 80.28C59.67 70.81 39.74 72.2 26.41 82.67C22.08 86.07 19.84 90.82 16.32 94.57C14.14 92.55 13.49 88.88 12.66 86.14C9.61 76 11.15 63.14 17.34 54.43Z" fill="#01d4e1" fill-rule="evenodd" stroke="#01d4e1" stroke-width="0.25" stroke-linejoin="round"/>
<path d="M612.22 49.5C612.88 52.02 613.47 59 611.93 61C611.88 60.67 611.84 60.33 611.79 60C611.79 56.67 611.79 53.33 611.8 50C611.94 49.83 612.08 49.67 612.22 49.5ZM622.71 49.28C622.81 52.86 622.91 56.43 623.01 60C621.49 58.07 622.16 51.77 622.71 49.28ZM468.5 59.49C464.68 60.04 465.74 62.93 465.74 66.25C465.74 71.85 464.57 82.94 466 87.88C465.25 88.68 465.81 88.78 464.75 88.1C463.31 80.14 464.46 70.87 464.5 62.75C464.51 60.58 466.22 55.7 468.5 59.49ZM622.69 75C624.22 77.53 623.19 87.77 623.19 91.25C623.19 103.08 623.19 114.92 623.19 126.75C623.19 130.5 624.15 138.68 622.71 141.72C622.7 119.48 622.7 97.24 622.69 75ZM594.03 77.5C594.03 96.17 594.03 114.83 594.03 133.5C592.65 131.69 593.42 123.51 593.42 120.75C593.42 110.25 593.42 99.75 593.42 89.25C593.42 86.24 592.3 79.78 594.03 77.5ZM198.99 91.5C198.99 93.5 198.99 95.5 198.99 97.5C197.96 96.19 197.97 92.81 198.99 91.5ZM1059.34 92.5C1061.39 93.57 1060.57 101.68 1060.57 104.25C1060.57 112.58 1060.57 120.92 1060.57 129.25C1060.57 133.14 1061.21 137.77 1060.28 141.5C1059.97 125.17 1059.65 108.83 1059.34 92.5ZM465.64 99.17C465.59 109.91 465.55 120.66 465.5 131.4C463.9 130.37 464.5 126.9 464.5 124.75C464.5 118.58 464.5 112.42 464.5 106.25C464.5 104.39 463.64 99.37 465.64 99.17ZM594.03 135.5C594.03 136.83 594.03 138.17 594.03 139.5C593.15 138.35 593.15 136.65 594.03 135.5ZM990.64 141.72C990.26 141.88 989.88 142.03 989.5 142.19C986.5 142.14 983.5 142.08 980.5 142.03C982.38 140.6 988.24 141.23 990.64 141.72ZM400 144.02C398.5 144.02 397 144.03 395.5 144.04C396.68 143.15 398.81 143.13 400 144.02Z" fill="#4f4f4a" fill-rule="evenodd" stroke="#4f4f4a" stroke-width="0.25" stroke-linejoin="round"/>
<path d="M202.5 59.69C184.36 59.85 166.22 60.01 148.08 60.16C149.56 58.71 159.02 59.45 161.75 59.45C170.92 59.45 180.08 59.45 189.25 59.45C193.53 59.45 198.32 58.88 202.5 59.69ZM279 72.06C277 72.27 275 72.48 273 72.69C274.36 71.37 277.15 71.72 279 72.06ZM771 72.36C769.58 73.35 764.86 72.76 763 72.38C764.76 71.17 769.04 71.64 771 72.36ZM1013.5 72.37C1011.83 72.36 1010.17 72.36 1008.5 72.36C1009.77 71.52 1012.24 71.51 1013.5 72.37ZM322.82 74.52C318.72 74.61 314.61 74.7 310.5 74.78C310.27 74.61 310.03 74.43 309.8 74.25C312.83 73.36 320.27 72.88 322.82 74.52ZM371.5 74.29C368 74.31 364.5 74.33 361 74.35C362.8 73.18 369.62 73.21 371.5 74.29ZM549 74.29C546 74.31 543 74.33 540 74.35C541.64 73.27 547.26 73.3 549 74.29ZM593.81 74.52C590.37 74.45 586.94 74.38 583.5 74.32C585.49 73.09 591.99 73.34 593.81 74.52ZM622.8 74.52C619.37 74.45 615.93 74.38 612.5 74.31C614.5 73.1 620.99 73.34 622.8 74.52ZM989.5 74.76C989.53 74.76 989.56 74.75 989.59 74.75C986.73 74.59 983.86 74.44 981 74.28C982.52 73.42 988.73 73.09 989.5 74.76ZM539.38 75C539.48 92.33 539.59 109.67 539.7 127C537.65 124.9 538.81 118.21 538.81 115.25C538.81 105.58 538.81 95.92 538.81 86.25C538.81 83.29 537.75 77.35 539.38 75ZM379.5 94.24C379.47 94.24 379.45 94.25 379.42 94.25C382.45 94.4 385.47 94.55 388.5 94.7C385.28 94.72 382.07 94.73 378.85 94.75C379.07 94.58 379.28 94.41 379.5 94.24ZM808.28 130C808.28 133.67 808.28 137.33 808.28 141C808.28 137.33 808.28 133.67 808.28 130ZM148.08 130.84C162.07 130.47 176.21 130.82 190.25 130.82C192.56 130.82 202.78 130.21 203.5 131.76C199.47 130.82 194.43 131.55 190.25 131.55C181.08 131.55 171.92 131.55 162.75 131.55C159.91 131.55 149.59 132.31 148.08 130.84ZM821.76 131.5C821.76 134.67 821.76 137.83 821.76 141C821.76 137.83 821.76 134.67 821.76 131.5ZM583.02 133.32C583.09 135.22 583.17 137.11 583.24 139C583.17 137.11 583.09 135.22 583.02 133.32ZM936.5 134.29C935 134.29 933.5 134.28 932 134.27C933.5 134.28 935 134.29 936.5 134.29ZM715.3 135C715.55 137.41 715.79 139.82 716.04 142.23C714.37 141.04 714.16 136.83 715.3 135ZM583.23 141.59C583.5 141.59 583.78 141.59 584.05 141.59C584.06 141.79 584.07 142 584.09 142.21C583.8 142 583.51 141.79 583.23 141.59ZM820.94 141.59C821.22 141.59 821.5 141.59 821.77 141.59C821.48 141.79 821.18 141.99 820.88 142.19C820.9 141.99 820.92 141.79 820.94 141.59Z" fill="#8c8c89" fill-rule="evenodd" stroke="#8c8c89" stroke-width="0.25" stroke-linejoin="round"/>
<path d="M453.23 49.5C453.14 63.33 453.05 77.17 452.96 91C451.51 83.53 452.72 68.99 452.72 60.75C452.72 57.75 451.66 51.98 453.23 49.5ZM651.76 49.5C652.76 51.11 652.27 53.83 652.27 55.75C652.27 60.75 652.27 65.75 652.27 70.75C652.27 87.75 652.27 104.75 652.27 121.75C652.27 125.22 653.07 139.39 651.76 141.5C651.76 110.83 651.76 80.17 651.76 49.5ZM611.8 50C611.79 53.33 611.79 56.67 611.79 60C611.79 56.67 611.79 53.33 611.8 50ZM714.47 50.5C716.09 52.22 715.22 64.11 715.22 67.25C715.22 69.07 715.66 71.25 714.46 72.5C714.46 65.17 714.47 57.83 714.47 50.5ZM452.96 93C452.96 94.67 452.96 96.33 452.96 98C452.96 96.33 452.96 94.67 452.96 93ZM452.96 100C452.96 112.67 452.96 125.33 452.96 138C452.96 125.33 452.96 112.67 452.96 100ZM820.78 128.75C821.94 129.72 822.09 129.85 821.76 131.5C821.76 134.67 821.76 137.83 821.76 141C821.77 141.2 821.77 141.39 821.77 141.59C821.5 141.59 821.22 141.59 820.94 141.59C820.89 137.31 820.84 133.03 820.78 128.75ZM583 133.09C583.25 132.84 583.5 132.6 583.75 132.35C583.85 135.43 583.95 138.51 584.05 141.59C583.78 141.59 583.5 141.59 583.23 141.59C583.23 140.72 583.24 139.86 583.24 139C583.17 137.11 583.09 135.22 583.02 133.32C583.01 133.25 583.01 133.17 583 133.09ZM980.5 142.03C983.5 142.08 986.5 142.14 989.5 142.19C987.77 143.19 981.99 143.21 980.5 142.03Z" fill="#6f6f6a" fill-rule="evenodd" stroke="#6f6f6a" stroke-width="0.25" stroke-linejoin="round"/>
<path d="M92.13 73C93.27 74.28 93.29 76.73 92.14 78C92.14 76.33 92.13 74.67 92.13 73ZM92.13 112C93.3 113.27 93.29 115.73 92.12 117C92.13 115.33 92.13 113.67 92.13 112Z" fill="#74dff2" fill-rule="evenodd" stroke="#74dff2" stroke-width="0.25" stroke-linejoin="round"/>
</svg>