<?xml version="1.0" standalone="no"?>
<!DOCTYPE svg PUBLIC "-//W3C//DTD SVG 20010904//EN"
 "http://www.w3.org/TR/2001/REC-SVG-20010904/DTD/svg10.dtd">
<svg version="1.0" xmlns="http://www.w3.org/2000/svg"
 width="3900.000000pt" height="1080.000000pt" viewBox="0 0 3900.000000 1080.000000"
 preserveAspectRatio="xMidYMid meet">

<g transform="translate(0.000000,1080.000000) scale(0.100000,-0.100000)"
fill="#000000" stroke="none">
<path d="M0 5535 l0 -3765 1284 0 1285 0 4 618 c3 526 6 632 21 722 59 356
144 628 287 911 135 271 298 500 526 740 143 151 4143 4528 4143 4534 0 3
-530 5 -1179 5 l-1179 0 -1273 -1468 -1274 -1468 -3 1468 -2 1468 -1320 0
-1320 0 0 -3765z"/>
<path d="M25075 8013 c-1546 -85 -2705 -975 -3040 -2336 -185 -749 -90 -1577
257 -2237 524 -997 1572 -1604 2845 -1648 652 -23 1213 69 1718 280 1076 450
1748 1374 1856 2552 16 180 6 561 -20 738 -154 1044 -756 1864 -1696 2309
-547 258 -1228 380 -1920 342z m516 -1693 c745 -152 1230 -919 1078 -1707 -26
-134 -59 -235 -120 -362 -68 -143 -145 -256 -253 -369 -188 -197 -403 -324
-656 -388 -142 -35 -359 -44 -510 -20 -557 88 -999 525 -1132 1117 -20 91 -23
130 -23 314 1 177 4 225 22 307 64 283 185 515 376 714 185 194 392 317 637
380 189 48 391 53 581 14z"/>
<path d="M32400 8014 c-25 -2 -103 -9 -175 -15 -728 -61 -1422 -337 -1925
-764 -124 -105 -333 -324 -423 -443 -333 -436 -532 -937 -603 -1512 -23 -185
-23 -566 0 -755 86 -712 370 -1311 850 -1791 532 -532 1246 -848 2098 -929
215 -20 630 -20 838 0 698 67 1303 289 1794 659 662 499 1071 1237 1162 2096
22 214 15 615 -16 815 -84 555 -291 1040 -620 1455 -104 132 -324 352 -457
457 -506 402 -1106 633 -1848 713 -101 11 -592 21 -675 14z m377 -1675 c608
-67 1086 -531 1209 -1169 27 -143 25 -419 -5 -560 -62 -293 -184 -528 -379
-731 -191 -200 -396 -320 -654 -385 -140 -35 -358 -44 -508 -20 -838 133
-1360 1040 -1089 1892 201 633 801 1043 1426 973z"/>
<path d="M8200 7784 c0 -3 529 -925 1175 -2049 l1175 -2044 0 -841 0 -840
1015 0 1015 0 0 841 0 841 1183 2041 c650 1122 1184 2044 1185 2049 2 4 -503
7 -1123 6 l-1127 -3 -559 -1035 c-307 -569 -562 -1035 -566 -1035 -3 0 -262
466 -574 1035 l-568 1035 -1115 3 c-614 1 -1116 -1 -1116 -4z"/>
<path d="M15180 4900 l0 -2890 1010 0 1010 0 2 1335 3 1335 1128 -1335 1129
-1335 864 0 864 0 0 2890 0 2890 -1010 0 -1010 0 0 -1365 c0 -751 -3 -1365 -7
-1364 -7 0 -2072 2496 -2218 2679 l-40 50 -862 0 -863 0 0 -2890z"/>
<path d="M37703 7220 c-440 -62 -786 -356 -921 -780 -16 -52 -36 -129 -43
-170 -16 -93 -17 -331 -1 -426 76 -458 392 -817 814 -929 645 -170 1264 201
1415 847 23 98 27 135 27 283 0 231 -32 383 -120 559 -154 306 -427 524 -751
596 -101 23 -325 34 -420 20z m267 -240 c389 -47 669 -320 746 -726 13 -69 15
-124 11 -244 -6 -177 -25 -264 -87 -397 -141 -301 -397 -473 -730 -490 -265
-13 -481 67 -655 241 -115 116 -188 246 -237 422 -18 67 -22 106 -22 259 -1
155 2 192 22 269 25 99 81 226 137 311 116 174 328 312 530 344 141 23 176 24
285 11z"/>
<path d="M37460 6080 l0 -580 130 0 130 0 0 200 0 200 103 0 c89 0 110 -3 147
-23 70 -37 80 -67 80 -234 l0 -143 131 0 131 0 -3 143 c-4 140 -5 145 -34 193
-18 29 -52 64 -83 84 -28 19 -51 37 -52 40 0 3 16 14 36 25 60 32 132 119 150
182 24 82 15 194 -19 266 -32 64 -104 135 -176 171 -97 50 -145 56 -418 56
l-253 0 0 -580z m518 325 c51 -21 89 -63 98 -109 8 -47 -24 -116 -71 -152 -37
-28 -43 -29 -162 -32 l-123 -4 0 162 0 163 108 -5 c69 -3 122 -11 150 -23z"/>
<path d="M4825 5773 c-138 -174 -285 -364 -328 -421 -429 -577 -575 -1320
-397 -2022 44 -177 94 -310 179 -485 192 -391 458 -698 811 -934 313 -209 651
-331 1060 -383 141 -17 675 -17 835 0 659 73 1302 302 1745 621 65 47 95 75
94 88 0 10 -214 517 -474 1126 l-475 1106 -50 -30 c-125 -76 -288 -140 -464
-184 -161 -40 -247 -50 -436 -49 -156 1 -197 4 -309 28 -525 110 -939 453
-1232 1021 -117 225 -207 462 -279 730 -15 55 -28 101 -29 102 -1 1 -114 -140
-251 -314z"/>
</g>
</svg>
